<svg id="vector" xmlns="http://www.w3.org/2000/svg" viewBox="0 0 900 900"><defs><style>.cls-1{fill:#fff;}.cls-2{fill:none;stroke:#0188ba;stroke-width:15px;}.cls-2,.cls-5{stroke-miterlimit:10;}.cls-3{fill:#b63333;}.cls-4{fill:#bd3b3b;}.cls-5{fill:#d33d3c;stroke:#d33d3c;stroke-width:9px;}</style></defs><rect class="cls-1" y="1" width="900" height="900" rx="450"/><g id="logo"><path class="cls-2" d="M301.7,600.49s27.49-19.16,40.41-23.33c11.87-3.83,22.68-14,24.36-15.61a3.23,3.23,0,0,1,.49-.41l26.62-18.55a4,4,0,0,1,1.33-.59c8.58-2.18,19-11.45,21.59-13.85a3.82,3.82,0,0,0,.7-.85c.55-1,4.2-5.08,27.82-20.13,28.74-18.34,43.74-32.08,47.49-32.92s12.92,0,20.42-4.58c4.5-2.75,5.85-1.45,6.21,0a3.8,3.8,0,0,1-.68,3.05,137.34,137.34,0,0,0-7.72,11.58,1.23,1.23,0,0,0,1.55,1.73c54-22.73,71-60.95,75.68-75.72a12.25,12.25,0,0,1,7.95-8c27.18-8.7,39.59-20.81,52-28.95,13.34-8.75,31.25-16.25,40-22.08s31.39-22.5,82.49-32.92C786,315.26,789.26,310.92,789,307a6.65,6.65,0,0,0-6.49-6c-13.33-.43-36.56,5.32-38.22,5.74l-.2,0A57.26,57.26,0,0,1,713.32,308a46.83,46.83,0,0,0-19.16-10.83L672,291.78c-1.16-.28-2.3-.64-3.43-1-14-4.38-28.3-.76-33.49.88a3.9,3.9,0,0,1-3.55-.62c-4.84-3.74-7.86-1.48-9.29.35a3.94,3.94,0,0,1-3.43,1.41C570.93,288.85,512.93,313,512.93,313l-113,44.05a4.31,4.31,0,0,1-.61.19c-3.09.66-27.27,5.13-67.16-7.3-42.77-13.33-59.44-6.11-66.1-3.33-6.14,2.55,2.33,9.83,3.7,11l.35.25c3.8,2.36,69.77,44.51,15,90.88a2.16,2.16,0,0,0-.27.25c-3.56,3.82-82.5,88.52-99.15,103.6-.11.1-.22.18-.34.27-3.77,2.61-66.18,46-74.26,64.87"/><path class="cls-3" d="M490.62,320.51s-4.69-37.52-45.3-48S414,244.7,375.79,230.44l-13,14.33s28.91,19,38.52,29c24.51,25.59,40.59,13.07,50.23,20.28s11.64,19.43,13.56,25.09a22.94,22.94,0,0,1,1,10.61Z"/><path class="cls-4" d="M478.21,321.44s-24.95-31.28-66.89-31-37.44-18.83-78-22.8l-8.88,17.18s32.82,10.93,44.68,18.16c30.26,18.45,42.59,2.21,53.75,6.71s17.23,19.23,22.23,22.52c17.23,11.34,22.33,13.47,22.33,13.47Z"/><path class="cls-5" d="M650.17,288.83c-20.31-.14-55.66,26.84-90.86,35-23.89,5.56-42.22,7.22-68.53-2.2l-35.19,13.71c26.74,17.85,57.06,31.5,109.83,25.71,54.29-5.95,124.47-39.46,146.87-52.38a.19.19,0,0,0,0-.29C706,299.41,680.75,289,650.17,288.83Z"/><path class="cls-1" d="M640.12,312.15c1.92,5,5.43,11.43-9.71,18.92s-31.66,13.89-45.1,8.21c-4.9-2.08-5-13.49,10.11-21S635.41,300,640.12,312.15Z"/></g></svg>