<svg id="vector" xmlns="http://www.w3.org/2000/svg" viewBox="0 0 900 900"><defs><style>.cls-1{fill:none;stroke:#0188ba;stroke-width:15px;}.cls-1,.cls-4{stroke-miterlimit:10;}.cls-2{fill:#b63333;}.cls-3{fill:#bd3b3b;}.cls-4{fill:#d33d3c;stroke:#d33d3c;stroke-width:9px;}.cls-5{fill:#fff;}</style></defs><g id="logo"><path class="cls-1" d="M278,628.72s31.9-22.23,46.88-27.06c13.77-4.44,26.32-16.23,28.26-18.11a5.17,5.17,0,0,1,.57-.48l30.88-21.52a4.83,4.83,0,0,1,1.54-.68c10-2.53,22-13.28,25.05-16.06a4.28,4.28,0,0,0,.81-1c.64-1.14,4.88-5.89,32.27-23.36,33.35-21.26,50.75-37.21,55.09-38.18s15,0,23.69-5.31c5.22-3.19,6.78-1.69,7.2,0a4.34,4.34,0,0,1-.79,3.54c-5,7-7.61,11.06-8.95,13.43a1.43,1.43,0,0,0,1.79,2c62.62-26.37,82.34-70.71,87.8-87.84a14.25,14.25,0,0,1,9.22-9.24c31.53-10.08,45.92-24.13,60.32-33.58,15.46-10.14,36.24-18.84,46.39-25.61s36.41-26.1,95.69-38.18c18.08-3.68,21.88-8.72,21.53-13.27a7.69,7.69,0,0,0-7.53-6.94c-15.46-.5-42.41,6.17-44.33,6.65a2,2,0,0,0-.24,0c-18.4,6.26-35.64,1.43-35.64,1.43a54.29,54.29,0,0,0-22.23-12.57l-25.69-6.27c-1.35-.33-2.66-.74-4-1.16-16.25-5.09-32.83-.88-38.85,1a4.51,4.51,0,0,1-4.12-.72c-5.62-4.34-9.11-1.72-10.77.4a4.57,4.57,0,0,1-4,1.64C590.29,267.21,523,295.25,523,295.25l-131.14,51.1a4.44,4.44,0,0,1-.71.21c-3.58.77-31.64,6-77.91-8.46-49.61-15.47-69-7.09-76.68-3.87-7.12,3,2.7,11.4,4.3,12.72a3,3,0,0,0,.41.29c4.4,2.74,80.93,51.63,17.37,105.42a2.91,2.91,0,0,0-.31.3c-4.13,4.43-95.7,102.68-115,120.17a3.89,3.89,0,0,1-.39.32c-4.37,3-76.77,53.38-86.15,75.25"/><path class="cls-2" d="M497.12,303.94s-5.44-43.52-52.55-55.7S408.21,216,363.91,199.45l-15.08,16.63s33.54,22,44.69,33.66c28.43,29.69,47.09,15.16,58.26,23.52s13.51,22.54,15.74,29.11a26.78,26.78,0,0,1,1.15,12.31Z"/><path class="cls-3" d="M482.72,305s-28.94-36.3-77.59-36-43.43-21.83-90.49-26.45l-10.3,19.94s38.06,12.68,51.82,21.06c35.11,21.4,49.41,2.57,62.36,7.78s20,22.31,25.78,26.12c20,13.16,25.91,15.64,25.91,15.64Z"/><path class="cls-4" d="M682.21,267.19c-23.57-.16-64.58,31.13-105.41,40.62-27.71,6.45-49,8.38-79.5-2.55l-40.82,15.91c31,20.7,66.19,36.53,127.41,29.82,63-6.91,144.39-45.78,170.37-60.77a.21.21,0,0,0,0-.33C746.92,279.46,717.68,267.43,682.21,267.19Z"/><path class="cls-5" d="M670.54,294.23c2.23,5.76,6.31,13.27-11.25,22S622.56,332.3,607,325.71c-5.69-2.41-5.83-15.65,11.73-24.34S665.09,280.1,670.54,294.23Z"/></g></svg>